<svg width="436" height="400" viewBox="0 0 436 400" fill="none" xmlns="http://www.w3.org/2000/svg">
<path fill-rule="evenodd" clip-rule="evenodd" d="M426.223 259.279L341.309 377.229C328.944 394.428 304.83 402.004 274.12 399.548C231.454 395.861 174.775 373.336 120.571 334.639C102.895 322.172 86.1969 308.391 70.6189 293.416C41.8966 265.701 20.7858 236.867 9.48064 211.158C-2.88421 182.901 -3.29315 157.921 9.0717 140.721L94.1878 22.7711C106.557 5.57158 130.464 -2.00373 161.381 0.451474C204.047 3.93332 260.52 26.6636 314.926 65.1605C369.134 103.863 408.915 149.935 425.814 188.842C427.274 192.18 428.566 195.47 429.692 198.711C438.095 222.892 437.128 244.111 426.223 259.279Z" fill="url(#paint0_linear_981_2449)"/>
<path fill-rule="evenodd" clip-rule="evenodd" d="M412.622 194.574C396.34 157.51 358.207 113.893 306.272 77.0345C254.54 40.1759 200.749 18.267 160.145 14.9905C135.411 12.9416 115.831 17.4501 105.941 31.1677L105.524 31.9847C96.2501 45.7067 98.3124 65.1605 107.999 87.2747C124.282 124.544 162.41 168.157 214.147 205.015C265.875 241.874 319.67 263.787 360.27 267.064C384.59 268.903 403.762 264.604 413.858 251.703L414.478 250.681C424.371 237.164 422.309 217.099 412.622 194.574ZM336.569 195.395C332.035 201.739 322.762 203.587 311.426 202.56C291.018 200.922 264.226 189.865 238.257 171.437C212.287 153.006 193.12 131.298 185.082 112.666C180.548 102.224 179.313 93.0108 183.846 86.6588C188.384 80.3111 197.658 78.4675 209.196 79.2888C229.392 81.1324 256.395 91.9842 282.158 110.416C308.128 128.843 327.295 150.752 335.333 169.389C340.073 179.83 341.309 189.043 336.569 195.395Z" fill="white"/>
<defs>
<linearGradient id="paint0_linear_981_2449" x1="147.778" y1="-4.83492" x2="285.907" y2="405.42" gradientUnits="userSpaceOnUse">
<stop stop-color="#27B0E6"/>
<stop offset="0.044" stop-color="#49A1DB"/>
<stop offset="0.11841" stop-color="#7D8ACA"/>
<stop offset="0.21562" stop-color="#A279BD"/>
<stop offset="0.29605" stop-color="#BA6FB6"/>
<stop offset="0.37529" stop-color="#C26BB3"/>
<stop offset="0.46788" stop-color="#D563AD"/>
<stop offset="0.57967" stop-color="#E65BA7"/>
<stop offset="0.70861" stop-color="#F156A3"/>
<stop offset="0.82293" stop-color="#F853A1"/>
<stop offset="1" stop-color="#FA52A0"/>
</linearGradient>
</defs>
</svg>
